<svg xmlns="http://www.w3.org/2000/svg" width="48" height="48" xmlns:v="https://vecta.io/nano"><linearGradient x1="31" x2="41" y1="27" y2="37" gradientUnits="userSpaceOnUse"><stop offset="0" stop-color="#292929"/><stop offset="1" stop-opacity="0"/></linearGradient><linearGradient x1="42.047" x2="19.635" y1="44.844" y2="11.322" gradientUnits="userSpaceOnUse"><stop offset="0" stop-color="#d6602e"/><stop offset="1" stop-color="#fd8f49"/></linearGradient><linearGradient x1="415.5" x2="407.4" y1="537.26" y2="519.75" gradientUnits="userSpaceOnUse"><stop offset="0" stop-color="#eef1f2"/><stop offset="1" stop-color="#f9fafb"/></linearGradient><linearGradient x1="41" x2="16" y1="46.75" y2="12.5" gradientUnits="userSpaceOnUse"><stop offset="0" stop-color="#a3582d"/><stop offset="1" stop-color="#ba6d42"/></linearGradient><linearGradient x1="414.63" x2="409.79" y1="531.77" y2="523.38" gradientTransform="matrix(-1.17844 0 0 -1.24685 516.197 684.37)" gradientUnits="userSpaceOnUse"><stop offset="0" stop-color="#197cf1"/><stop offset="1" stop-color="#21c9fb"/></linearGradient><g fill-rule="nonzero" transform="matrix(.070499 0 0 .070499 -9.34403 -5.315469)"><path d="M391.8 450.6c2.29-40.824 22.248-76.896 52.488-102.384 29.592-25.056 69.336-40.392 112.968-40.392 43.416 0 83.16 15.314 112.752 40.392 30.24 25.488 50.112 61.56 52.488 102.384 2.29 41.904-14.58 81-44.064 109.944-30.24 29.376-73.008 47.952-121.176 47.952s-91.152-18.446-121.176-47.952c-29.592-28.944-46.44-67.824-44.064-109.728z" fill="#fff"/><path d="M482.3 445.6c1.177-20.979 11.433-39.516 26.973-52.614 15.207-12.876 35.631-20.757 58.053-20.757 22.311 0 42.735 7.87 57.942 20.757 15.54 13.098 25.752 31.635 26.973 52.614 1.177 21.534-7.493 41.625-22.644 56.499-15.54 15.096-37.518 24.642-62.271 24.642s-46.842-9.479-62.271-24.642c-15.207-14.874-23.865-34.854-22.644-56.388z" fill="#265787"/><path d="M349.1 490c.144 8.214 2.764 24.198 6.693 36.63 8.258 26.418 22.311 50.838 41.736 72.261 19.98 22.089 44.622 39.849 73.038 52.503 29.859 13.209 62.271 19.98 95.904 19.98 33.633-.044 66.045-6.926 95.904-20.313 28.416-12.765 53.058-30.525 73.038-52.725 19.536-21.645 33.522-46.065 41.736-72.483 4.163-13.32 6.793-26.862 7.848-40.404 1.032-13.32.599-26.751-1.299-40.182-3.707-26.085-12.765-50.616-26.64-72.816-12.654-20.535-29.082-38.406-48.618-53.502l.044-.033-196.47-150.96c-.178-.133-.322-.277-.511-.4-12.876-9.901-34.632-9.868-48.729.055-14.319 10.034-15.984 26.64-3.219 37.074l-.056.055 82.029 66.711-249.75.266h-.333c-20.646.022-40.515 13.542-44.4 30.747-4.04 17.427 9.99 31.968 31.524 31.968l-.033.078 126.54-.244-226.44 173.16-.866.644c-21.312 16.317-28.194 43.512-14.763 60.606 13.653 17.427 42.624 17.538 64.158.1l123.21-101.01s-1.798 13.653-1.654 21.756zm317.46 45.621c-25.419 25.863-61.05 40.626-99.456 40.626-38.517.067-74.148-14.43-99.567-40.293-12.432-12.654-21.534-27.084-27.195-42.513a110.51 110.51 0 0 1-6.238-47.508c1.343-15.873 6.072-31.08 13.653-44.733 7.415-13.431 17.649-25.641 30.192-35.964 24.753-20.091 56.166-31.08 89.022-31.08 32.967-.044 64.38 10.756 89.133 30.858 12.543 10.256 22.755 22.422 30.192 35.853 7.581 13.653 12.321 28.749 13.653 44.733a110.86 110.86 0 0 1-6.26 47.508c-5.639 15.54-14.763 29.97-27.195 42.624z" fill="#ea7600"/></g></svg>