<svg xmlns="http://www.w3.org/2000/svg" width="32" height="32" xmlns:v="https://vecta.io/nano"><defs><linearGradient id="A" x1="386.572" x2="446.572" y1="522.464" y2="522.464" gradientUnits="userSpaceOnUse"><stop offset="0" stop-color="#306892"/><stop offset="1" stop-color="#319b92"/></linearGradient><linearGradient id="B" x1="386.966" x2="446.183" y1="514.602" y2="514.602" gradientUnits="userSpaceOnUse"><stop offset="0" stop-color="#73abd3"/><stop offset="1" stop-color="#db8fbf"/></linearGradient></defs><path fill="url(#B)" d="M416.09 497.005c-.88 0-1.922-.516-2.317-1.148l-1.77-2.884c-.393-.631-1.435-1.147-2.315-1.148l-19.27-.027c-1.946-.003-3.44 1.416-3.44 3.166l-.012 39.848h59.217v-35.24c0-1.554-.914-2.567-2.515-2.567z" transform="matrix(.49987 0 0 .49987 -192.232 -241.829)"/><path fill="#f0f0f0" d="M28.964 13.415H3.225V9.8c0-.591.434-1.205 1.259-1.205h23.123c.839 0 1.358.613 1.358 1.205z"/><path fill="url(#A)" d="M443.328 505.136h-53.513c-1.622 0-3.243 1.475-3.243 2.95v28.276c0 1.951 1.601 3.436 3.566 3.436h52.867c1.97 0 3.566-1.484 3.566-3.436v-28.275c0-1.475-1.622-2.951-3.243-2.951" transform="matrix(.49987 0 0 .49987 -192.232 -241.829)"/><path d="M26.261 17.465a1.94 1.94 0 0 0-1.944 1.944 1.94 1.94 0 0 0 1.552 1.905 3.23 3.23 0 0 0-1.929.954 4 4 0 0 1 .603.33 2.57 2.57 0 0 1 1.718-.662 2.586 2.586 0 0 1 2.592 2.592h-2.818a4 4 0 0 1 .172.648h3.295v-.648a3.23 3.23 0 0 0-2.848-3.214 1.94 1.94 0 0 0 1.552-1.905 1.94 1.94 0 0 0-1.944-1.944m0 .648c.718 0 1.296.578 1.296 1.296s-.578 1.296-1.296 1.296a1.293 1.293 0 0 1-1.296-1.296c0-.718.578-1.296 1.296-1.296m-3.888.583a1.94 1.94 0 1 0 0 3.888 1.94 1.94 0 1 0 0-3.888m0 3.888a3.233 3.233 0 0 0-3.24 3.24v.648h6.48v-.648a3.233 3.233 0 0 0-3.24-3.24m0-3.24c.718 0 1.296.578 1.296 1.296s-.578 1.296-1.296 1.296a1.293 1.293 0 0 1-1.296-1.296c0-.718.578-1.296 1.296-1.296m0 3.888a2.586 2.586 0 0 1 2.592 2.592h-5.184a2.586 2.586 0 0 1 2.592-2.592" fill="#e9f1f1" opacity=".91"/></svg>