<svg xmlns="http://www.w3.org/2000/svg" width="32" height="32" xmlns:v="https://vecta.io/nano"><defs><linearGradient id="A" x1="386.572" x2="446.572" y1="522.464" y2="522.464" gradientUnits="userSpaceOnUse"><stop offset="0" stop-color="#306892"/><stop offset="1" stop-color="#319b92"/></linearGradient><linearGradient id="B" x1="386.966" x2="446.183" y1="514.602" y2="514.602" gradientUnits="userSpaceOnUse"><stop offset="0" stop-color="#73abd3"/><stop offset="1" stop-color="#db8fbf"/></linearGradient></defs><path fill="url(#B)" d="M416.09 497.005c-.88 0-1.922-.516-2.317-1.148l-1.77-2.884c-.393-.631-1.435-1.147-2.315-1.148l-19.27-.027c-1.946-.003-3.44 1.416-3.44 3.166l-.012 39.848h59.217v-35.24c0-1.554-.914-2.567-2.515-2.567z" transform="matrix(.49987 0 0 .49987 -192.232 -241.829)"/><path fill="#f0f0f0" d="M28.964 13.415H3.225V9.8c0-.591.434-1.205 1.259-1.205h23.123c.839 0 1.358.613 1.358 1.205z"/><path fill="url(#A)" d="M443.328 505.136h-53.513c-1.622 0-3.243 1.475-3.243 2.95v28.276c0 1.951 1.601 3.436 3.566 3.436h52.867c1.97 0 3.566-1.484 3.566-3.436v-28.275c0-1.475-1.622-2.951-3.243-2.951" transform="matrix(.49987 0 0 .49987 -192.232 -241.829)"/><path d="M20.39 17.433c-.77 0-1.39.62-1.39 1.39v6.254c0 .77.62 1.39 1.39 1.39h7.7c.77 0 1.39-.62 1.39-1.39v-6.254c0-.77-.62-1.39-1.39-1.39zm0 .695h.475v.695h-1.17c0-.385.31-.695.696-.695m1.078 0h5.544v3.474h-5.544zm6.148 0h.474c.385 0 .695.31.695.695h-1.17zm-7.921 1.39h1.17v.695h-1.17zm7.92 0h1.17v.695h-1.17zm-7.92 1.39h1.17v.694h-1.17zm7.92 0h1.17v.694h-1.17zm-7.92 1.39h1.17v.694h-1.17zm1.773 0h5.544v3.474h-5.544zm6.148 0h1.169v.694h-1.17zm-7.921 1.39h1.17v.694h-1.17zm7.92 0h1.17v.694h-1.17zm-7.92 1.39h1.17v.694h-.475a.693.693 0 0 1-.695-.695m7.92 0h1.17c0 .385-.31.695-.695.695h-.474z" opacity=".91" fill="#e9f1f1"/></svg>