<svg xmlns="http://www.w3.org/2000/svg" width="32" height="32" xmlns:v="https://vecta.io/nano"><defs><linearGradient id="A" x1="386.572" x2="446.572" y1="522.464" y2="522.464" gradientUnits="userSpaceOnUse"><stop offset="0" stop-color="#306892"/><stop offset="1" stop-color="#319b92"/></linearGradient><linearGradient id="B" x1="386.966" x2="446.183" y1="514.602" y2="514.602" gradientUnits="userSpaceOnUse"><stop offset="0" stop-color="#73abd3"/><stop offset="1" stop-color="#db8fbf"/></linearGradient></defs><path fill="url(#B)" d="M416.09 497.005c-.88 0-1.922-.516-2.317-1.148l-1.77-2.884c-.393-.631-1.435-1.147-2.315-1.148l-19.27-.027c-1.946-.003-3.44 1.416-3.44 3.166l-.012 39.848h59.217v-35.24c0-1.554-.914-2.567-2.515-2.567z" transform="matrix(.49987 0 0 .49987 -192.232 -241.829)"/><path fill="#f0f0f0" d="M28.964 13.415H3.225V9.8c0-.591.434-1.205 1.259-1.205h23.123c.839 0 1.358.613 1.358 1.205z"/><path fill="url(#A)" d="M443.328 505.136h-53.513c-1.622 0-3.243 1.475-3.243 2.95v28.276c0 1.951 1.601 3.436 3.566 3.436h52.867c1.97 0 3.566-1.484 3.566-3.436v-28.275c0-1.475-1.622-2.951-3.243-2.951" transform="matrix(.49987 0 0 .49987 -192.232 -241.829)"/><g fill="#e9f1f1" opacity=".91"><path d="M21.718 17.887c-.77 0-1.393.59-1.393 1.321v5.948c0 .732.622 1.321 1.393 1.321h4.174c.77 0 1.39-.589 1.39-1.32v-3.966l-3.478-3.304zm0 .66h1.39v3.305h3.48v3.304c0 .366-.31.66-.696.66h-4.174c-.385 0-.697-.294-.697-.66v-5.948q.002-.138.054-.258a.7.7 0 0 1 .643-.402m2.086.275l2.494 2.37h-2.494z"/><path d="M24.718 17.428q-.271.002-.502.11l.512.486h1.186v1.125l.597.566v-1.443l2.141 2.142h-1.404l.453.43v.168H28.9v2.986c.001.158-.062.311-.174.423s-.264.175-.422.175h-.591l.002.598h.59c.661 0 1.193-.534 1.193-1.196v-3.583l-2.987-2.986z"/></g></svg>