<svg xmlns="http://www.w3.org/2000/svg" width="32" height="32" xmlns:v="https://vecta.io/nano"><defs><linearGradient id="A" x1="386.572" x2="446.572" y1="522.464" y2="522.464" gradientUnits="userSpaceOnUse"><stop offset="0" stop-color="#306892"/><stop offset="1" stop-color="#319b92"/></linearGradient><linearGradient id="B" x1="386.966" x2="446.183" y1="514.602" y2="514.602" gradientUnits="userSpaceOnUse"><stop offset="0" stop-color="#73abd3"/><stop offset="1" stop-color="#db8fbf"/></linearGradient></defs><path fill="url(#B)" d="M416.09 497.005c-.88 0-1.922-.516-2.317-1.148l-1.77-2.884c-.393-.631-1.435-1.147-2.315-1.148l-19.27-.027c-1.946-.003-3.44 1.416-3.44 3.166l-.012 39.848h59.217v-35.24c0-1.554-.914-2.567-2.515-2.567z" transform="matrix(.49987 0 0 .49987 -192.232 -241.829)"/><path fill="#f0f0f0" d="M28.964 13.415H3.225V9.8c0-.591.434-1.205 1.259-1.205h23.123c.839 0 1.358.613 1.358 1.205z"/><path fill="url(#A)" d="M443.328 505.136h-53.513c-1.622 0-3.243 1.475-3.243 2.95v28.276c0 1.951 1.601 3.436 3.566 3.436h52.867c1.97 0 3.566-1.484 3.566-3.436v-28.275c0-1.475-1.622-2.951-3.243-2.951" transform="matrix(.49987 0 0 .49987 -192.232 -241.829)"/><path d="M20.41 17.51c-.765 0-1.38.615-1.38 1.38v6.207c0 .764.615 1.38 1.38 1.38h7.704c.765 0 1.38-.616 1.38-1.38v-6.208c0-.764-.615-1.38-1.38-1.38zm0 .69h7.704a.69.69 0 0 1 .69.69H19.72a.69.69 0 0 1 .69-.69m-.69 1.259h9.084v5.638a.69.69 0 0 1-.69.69H20.41a.69.69 0 0 1-.69-.69zm2.07 4.784c-.383 0-.69.154-.69.345s.307.345.69.345h4.945c.382 0 .69-.154.69-.345s-.308-.345-.69-.345z" fill="#e9f1f1" opacity=".91"/></svg>