<svg xmlns="http://www.w3.org/2000/svg" width="32" height="32" xmlns:v="https://vecta.io/nano"><defs><linearGradient id="A" x1="386.57" x2="446.57" y1="522.46" y2="522.46" gradientUnits="userSpaceOnUse"><stop offset="0" stop-color="#306892"/><stop offset="1" stop-color="#319b92"/></linearGradient><linearGradient id="B" x1="386.97" x2="446.18" y1="514.6" y2="514.6" gradientUnits="userSpaceOnUse"><stop offset="0" stop-color="#73abd3"/><stop offset="1" stop-color="#db8fbf"/></linearGradient></defs><path fill="url(#B)" d="M416.09 497.01c-.88 0-1.922-.516-2.317-1.148l-1.77-2.884c-.393-.631-1.435-1.147-2.315-1.148l-19.27-.027c-1.946-.003-3.44 1.415-3.44 3.165l-.012 39.848h59.217v-35.24c0-1.554-.915-2.567-2.516-2.567z" transform="matrix(.49987 0 0 .49987 -192.233 -241.832)"/><path fill="#f0f0f0" d="M28.965 13.415H3.225V9.8c0-.591.434-1.205 1.259-1.205h23.123c.839 0 1.358.613 1.358 1.205z"/><path fill="url(#A)" d="M443.33 505.14h-53.513c-1.622 0-3.243 1.475-3.243 2.951v28.275c0 1.951 1.601 3.436 3.566 3.436h52.867c1.971 0 3.566-1.484 3.566-3.436v-28.275c0-1.475-1.622-2.951-3.243-2.951" transform="matrix(.49987 0 0 .49987 -192.233 -241.832)"/><path fill="#e9f1f1" fill-rule="evenodd" d="m29.398 21.844-2.059-1.664a.353.353 0 0 0-.49 0 .33.33 0 0 0 0 .478l1.784 1.443-1.784 1.442a.33.33 0 0 0 0 .478.35.35 0 0 0 .49 0l2.06-1.664a.33.33 0 0 0 .097-.256.33.33 0 0 0-.098-.256m-7.566 1.699-1.784-1.442 1.784-1.443a.33.33 0 0 0 0-.478.35.35 0 0 0-.49 0l-2.059 1.665a.33.33 0 0 0-.098.256.33.33 0 0 0 .098.256l2.059 1.664a.35.35 0 0 0 .49 0 .33.33 0 0 0 0-.478m4.9-5.963a.347.347 0 0 0-.469.123l-4.296 8.278c-.095.161-.055.408.126.46.222.065.375.038.47-.123l4.295-8.278a.333.333 0 0 0-.125-.46" opacity=".91"/></svg>