<svg xmlns="http://www.w3.org/2000/svg" width="64" height="64" xmlns:v="https://vecta.io/nano"><defs><linearGradient id="A" x1="386.966" x2="446.183" y1="514.602" y2="514.602" gradientUnits="userSpaceOnUse"><stop offset="0" stop-color="#73abd3"/><stop offset="1" stop-color="#db8fbf"/></linearGradient><linearGradient id="B" x1="386.572" x2="446.572" y1="522.464" y2="522.464" gradientUnits="userSpaceOnUse"><stop offset="0" stop-color="#306892"/><stop offset="1" stop-color="#319b92"/></linearGradient></defs><path fill="url(#A)" d="M416.09 497.005c-.88 0-1.922-.516-2.317-1.148l-1.77-2.884c-.393-.631-1.435-1.147-2.315-1.148l-19.27-.027c-1.946-.003-3.44 1.416-3.44 3.166l-.012 39.848h59.217v-35.24c0-1.554-.914-2.567-2.515-2.567z" transform="translate(-384.571 -483.798)"/><path fill="#f0f0f0" d="M57.94 26.826H6.448v-7.23c0-1.183.868-2.41 2.519-2.41h46.258c1.678 0 2.716 1.226 2.716 2.41z"/><path fill="url(#B)" d="M445.08 507.577h-57.018c-1.728 0-3.567 1.479-3.455 2.95l1.965 25.835c.148 1.945 1.601 3.436 3.566 3.436h52.867c1.97 0 3.418-1.49 3.566-3.436l1.965-25.834c.112-1.471-1.728-2.951-3.455-2.951" transform="translate(-384.571 -483.798)"/></svg>