<svg xmlns="http://www.w3.org/2000/svg" width="32" height="32" xmlns:v="https://vecta.io/nano"><defs><linearGradient id="A" x1="386.572" x2="446.572" y1="522.464" y2="522.464" gradientUnits="userSpaceOnUse"><stop offset="0" stop-color="#306892"/><stop offset="1" stop-color="#319b92"/></linearGradient><linearGradient id="B" x1="386.966" x2="446.183" y1="514.602" y2="514.602" gradientUnits="userSpaceOnUse"><stop offset="0" stop-color="#73abd3"/><stop offset="1" stop-color="#db8fbf"/></linearGradient></defs><path fill="url(#B)" d="M416.09 497.005c-.88 0-1.922-.516-2.317-1.148l-1.77-2.884c-.393-.631-1.435-1.147-2.315-1.148l-19.27-.027c-1.946-.003-3.44 1.416-3.44 3.166l-.012 39.848h59.217v-35.24c0-1.554-.914-2.567-2.515-2.567z" transform="matrix(.49987 0 0 .49987 -192.232 -241.829)"/><path fill="#f0f0f0" d="M28.964 13.415H3.225V9.8c0-.591.434-1.205 1.259-1.205h23.123c.839 0 1.358.613 1.358 1.205z"/><path fill="url(#A)" d="M443.328 505.136h-53.513c-1.622 0-3.243 1.475-3.243 2.95v28.276c0 1.951 1.601 3.436 3.566 3.436h52.867c1.97 0 3.566-1.484 3.566-3.436v-28.275c0-1.475-1.622-2.951-3.243-2.951" transform="matrix(.49987 0 0 .49987 -192.232 -241.829)"/><g opacity=".91" fill="#e9f1f1"><g stroke="none"><path d="M24.216 22.856c-.775.016-1.5.258-2.204.789-.136.117-.167.344-.07.506s.314.221.448.106c1.149-.832 2.547-.863 3.692-.076.137.11.352.042.445-.125a.41.41 0 0 0-.084-.503c-.737-.503-1.453-.714-2.227-.698m.036-2.528a5.54 5.54 0 0 0-3.671 1.444c-.132.123-.155.351-.052.509s.34.232.469.11c1.992-1.635 4.517-1.703 6.525-.043.131.12.368.043.47-.117s.076-.387-.056-.509c-1.172-.958-2.387-1.404-3.685-1.395m-.025-2.529c-1.814.015-3.525.732-5.107 2.133-.129.127-.148.356-.041.511s.363.248.49.122c2.834-2.575 6.501-2.609 9.347-.078.129.124.385.026.489-.131s.084-.385-.047-.51c-1.625-1.356-3.317-2.063-5.132-2.048m.005 7.503c-.313 0-.567.26-.567.581s.254.582.567.582.567-.26.567-.582-.254-.581-.567-.581"/></g></g></svg>