<svg xmlns="http://www.w3.org/2000/svg" width="32" height="32" xmlns:v="https://vecta.io/nano"><defs><linearGradient id="A" x1="386.572" x2="446.572" y1="522.464" y2="522.464" gradientUnits="userSpaceOnUse"><stop offset="0" stop-color="#306892"/><stop offset="1" stop-color="#319b92"/></linearGradient><linearGradient id="B" x1="386.966" x2="446.183" y1="514.602" y2="514.602" gradientUnits="userSpaceOnUse"><stop offset="0" stop-color="#73abd3"/><stop offset="1" stop-color="#db8fbf"/></linearGradient></defs><path fill="url(#B)" d="M416.09 497.005c-.88 0-1.922-.516-2.317-1.148l-1.77-2.884c-.393-.631-1.435-1.147-2.315-1.148l-19.27-.027c-1.946-.003-3.44 1.416-3.44 3.166l-.012 39.848h59.217v-35.24c0-1.554-.914-2.567-2.515-2.567z" transform="matrix(.49987 0 0 .49987 -192.232 -241.829)"/><path fill="#f0f0f0" d="M28.964 13.415H3.225V9.8c0-.591.434-1.205 1.259-1.205h23.123c.839 0 1.358.613 1.358 1.205z"/><path fill="url(#A)" d="M443.328 505.136h-53.513c-1.622 0-3.243 1.475-3.243 2.95v28.276c0 1.951 1.601 3.436 3.566 3.436h52.867c1.97 0 3.566-1.484 3.566-3.436v-28.275c0-1.475-1.622-2.951-3.243-2.951" transform="matrix(.49987 0 0 .49987 -192.232 -241.829)"/><path d="M25.012 17.506q-.09.003-.177.01c-2.18.075-3.979 1.753-4.265 3.883q-.011.076-.019.153c-.321 3.047 2.62 5.657 5.721 4.744 1.075-.316 1.729-.922 2.173-1.412v-.002l-.008.003a4.5 4.5 0 0 0 1.062-2.892c-.01-1.932-1.499-4.48-4.487-4.487m.001.734l.012.001-.012.196a6.72 6.72 0 0 0 .182 1.532 4 4 0 0 1-2.152.924 6.2 6.2 0 0 1 1.32-2.595q.13-.022.264-.034l.114-.014q.135-.01.272-.01m.545.044l.008.002q.18.027.358.072h.002q.181.045.358.11l.013.004c-.161.38-.38.733-.648 1.047a6.3 6.3 0 0 1-.1-1.082c0-.05.008-.1.01-.153m-2.069.285a6.6 6.6 0 0 0-1.003 2.343 4 4 0 0 1-1.007-.162 4 4 0 0 1 .138-.34l.01-.02q.075-.16.167-.315l.005-.009a4 4 0 0 1 .441-.593l.004-.006q.123-.134.26-.257l.011-.01q.133-.12.277-.225l.016-.012a4 4 0 0 1 .3-.198l.008-.003q.159-.094.327-.172zm3.293.117l.003.002a4 4 0 0 1 .585.391l.033.024.003.003q.126.105.241.221l.032.03.002.003q.093.095.18.2l.074.085q.073.093.14.19l.08.113q.084.132.157.27l.026.044.001.003q.07.135.128.278l.027.06.002.007q.046.12.084.244l.04.121a4.5 4.5 0 0 0-2.059.865 6.2 6.2 0 0 1-.77-1.695 4.5 4.5 0 0 0 .99-1.459m-1.436 1.84c.193.594.464 1.152.805 1.662a4.55 4.55 0 0 0-1.316 2.383 6.2 6.2 0 0 1-1.729-.564 6.2 6.2 0 0 1-.235-1.679 6.39 6.39 0 0 1 .071-.892 4.5 4.5 0 0 0 2.404-.91m-4.01.732q.52.158 1.064.185-.06.44-.065.885c0 .45.047.888.13 1.314a6.2 6.2 0 0 1-1.138-.978 4 4 0 0 1-.037-.27l-.015-.119a3.7 3.7 0 0 1 .061-1.017m7.39.241a4 4 0 0 1 .035.49 3.75 3.75 0 0 1-.378 1.63l-.012.028a6.3 6.3 0 0 1-1.498-1.376 4 4 0 0 1 1.852-.77m-2.256 1.118a6.8 6.8 0 0 0 1.639 1.485l-.001.003a4 4 0 0 1-.152.198 6.2 6.2 0 0 1-2.068.362c-.175 0-.348-.012-.52-.026a4 4 0 0 1 1.102-2.022m-4.766 1.126q.447.358.952.636.122.375.284.73l-.003-.003a4 4 0 0 1-.284-.21l-.016-.012a3.8 3.8 0 0 1-.933-1.142m1.636.957q.69.28 1.424.4a5 5 0 0 0-.019.37l.012.255h-.005a3.8 3.8 0 0 1-.992-.208h-.005a6 6 0 0 1-.415-.816m3.781.382l-.001.003a4 4 0 0 1-.312.19l-.007.003h-.003q-.14.077-.285.14l-.07.03a4 4 0 0 1-.276.1l-.077.026a4 4 0 0 1-.258.067l-.116.026a4 4 0 0 1-.241.035 4 4 0 0 1-.179.022l-.015-.256q.002-.15.014-.297l.592.03a6.6 6.6 0 0 0 1.235-.118" opacity=".91" fill="#e9f1f1"/></svg>