<svg xmlns="http://www.w3.org/2000/svg" width="32" height="32" xmlns:v="https://vecta.io/nano"><defs><linearGradient id="A" x1="386.572" x2="446.572" y1="522.464" y2="522.464" gradientUnits="userSpaceOnUse"><stop offset="0" stop-color="#306892"/><stop offset="1" stop-color="#319b92"/></linearGradient><linearGradient id="B" x1="386.966" x2="446.183" y1="514.602" y2="514.602" gradientUnits="userSpaceOnUse"><stop offset="0" stop-color="#73abd3"/><stop offset="1" stop-color="#db8fbf"/></linearGradient></defs><path fill="url(#B)" d="M416.09 497.005c-.88 0-1.922-.516-2.317-1.148l-1.77-2.884c-.393-.631-1.435-1.147-2.315-1.148l-19.27-.027c-1.946-.003-3.44 1.416-3.44 3.166l-.012 39.848h59.217v-35.24c0-1.554-.914-2.567-2.515-2.567z" transform="matrix(.49987 0 0 .49987 -192.232 -241.829)"/><path fill="#f0f0f0" d="M28.964 13.415H3.225V9.8c0-.591.434-1.205 1.259-1.205h23.123c.839 0 1.358.613 1.358 1.205z"/><path fill="url(#A)" d="M443.328 505.136h-53.513c-1.622 0-3.243 1.475-3.243 2.95v28.276c0 1.951 1.601 3.436 3.566 3.436h52.867c1.97 0 3.566-1.484 3.566-3.436v-28.275c0-1.475-1.622-2.951-3.243-2.951" transform="matrix(.49987 0 0 .49987 -192.232 -241.829)"/><path fill="#e9f1f1" d="M24.77 17.475a.29.29 0 0 0-.276.188l-1.101 2.857-3.053.161a.294.294 0 0 0-.171.523l2.375 1.933-.785 2.956a.294.294 0 0 0 .445.323l2.566-1.663 2.566 1.662a.294.294 0 0 0 .445-.323l-.785-2.956 2.375-1.933a.294.294 0 0 0-.171-.523l-3.053-.16-1.101-2.858a.29.29 0 0 0-.274-.188zm-.001 1.113.895 2.322a.29.29 0 0 0 .258.188l2.48.131-1.927 1.571a.29.29 0 0 0-.1.304l.639 2.404-2.087-1.352a.29.29 0 0 0-.32 0l-2.087 1.352.638-2.404a.29.29 0 0 0-.1-.304l-1.927-1.57 2.48-.132a.29.29 0 0 0 .259-.188z" opacity=".91"/></svg>